<?xml version="1.0" encoding="UTF-8" standalone="no"?>
<svg
   xmlns:dc="http://purl.org/dc/elements/1.1/"
   xmlns:cc="http://creativecommons.org/ns#"
   xmlns:rdf="http://www.w3.org/1999/02/22-rdf-syntax-ns#"
   xmlns:svg="http://www.w3.org/2000/svg"
   xmlns="http://www.w3.org/2000/svg"
   xmlns:sodipodi="http://sodipodi.sourceforge.net/DTD/sodipodi-0.dtd"
   xmlns:inkscape="http://www.inkscape.org/namespaces/inkscape"
   version="1.1"
   x="0px"
   y="0px"
   viewBox="0 0 52 65"
   style="enable-background:new 0 0 52 52;"
   xml:space="preserve"
   id="svg22"
   sodipodi:docname="for-sale--rent.svg"
   inkscape:version="0.92.1 r15371"><metadata
     id="metadata28"><rdf:RDF><cc:Work
         rdf:about=""><dc:format>image/svg+xml</dc:format><dc:type
           rdf:resource="http://purl.org/dc/dcmitype/StillImage" /><dc:title></dc:title></cc:Work></rdf:RDF></metadata><defs
     id="defs26" /><sodipodi:namedview
     pagecolor="#ffffff"
     bordercolor="#666666"
     borderopacity="1"
     objecttolerance="10"
     gridtolerance="10"
     guidetolerance="10"
     inkscape:pageopacity="0"
     inkscape:pageshadow="2"
     inkscape:window-width="952"
     inkscape:window-height="1027"
     id="namedview24"
     showgrid="false"
     inkscape:zoom="5.1346831"
     inkscape:cx="7.619224"
     inkscape:cy="49.907963"
     inkscape:window-x="1440"
     inkscape:window-y="0"
     inkscape:window-maximized="0"
     inkscape:current-layer="g16" /><style
     type="text/css"
     id="style2">
	.st0{fill:none;stroke:#000000;stroke-width:2;stroke-miterlimit:10;}
	.st1{fill:none;stroke:#000000;stroke-width:2;stroke-linecap:round;stroke-miterlimit:10;}
	.st2{fill:#ED1C24;}
	.st3{fill:none;stroke:#000000;stroke-width:2;stroke-linecap:round;stroke-linejoin:round;stroke-miterlimit:10;}
	.st4{fill:none;}
</style><g
     id="g16"><g
       id="g10"
       style="fill:#375e97;fill-opacity:1"><path
         d="m 21.910156,50.000084 h -8.294922 c -0.552246,0 -1,-0.447754 -1,-1 v -14 c 0,-0.552246 0.447754,-1 1,-1 h 8.294922 c 0.552246,0 1,0.447754 1,1 v 14 c 0,0.552246 -0.447754,1 -1,1 z m -7.294922,-2 h 6.294922 v -12 h -6.294922 z"
         id="path8"
         inkscape:connector-curvature="0"
         style="fill:#375e97;fill-opacity:1" /></g><g
       id="g14"
       style="fill:#375e97;fill-opacity:1"><path
         d="m 38.709961,35.000084 h -9.59961 c -0.661621,0 -1.200195,-0.538574 -1.200195,-1.200195 v -9.599608 c 0,-0.661621 0.538574,-1.200195 1.200195,-1.200195 h 9.59961 c 0.661621,0 1.200195,0.538574 1.200195,1.200195 v 9.599608 c 0,0.661621 -0.538574,1.200195 -1.200195,1.200195 z m -8.799805,-2 h 8 v -7.999998 h -8 z"
         id="path12"
         inkscape:connector-curvature="0"
         style="fill:#375e97;fill-opacity:1" /></g><g
       id="g6"
       style="fill:#375e97;fill-opacity:1"><path
         d="M 43.102539,50.000084 H 10.077148 c -0.5522457,0 -0.9999996,-0.447754 -0.9999996,-1 V 19.800379 H 3.0000002 c -0.4399414,0 -0.828125,-0.287598 -0.956543,-0.708496 -0.128418,-0.420411 0.033691,-0.875977 0.3984375,-1.121094 L 25.9375,2.1704955 c 0.34375,-0.2314453 0.793945,-0.2270508 1.132812,0.01123 l 6.839844,4.8027344 v -3.984375 c 0,-0.5522461 0.447754,-1 1,-1 h 4 c 0.552246,0 1,0.4477539 1,1 v 8.1967781 l 9.664551,6.785156 c 0.356934,0.250488 0.510254,0.703613 0.378906,1.119629 C 49.822266,19.517663 49.436035,19.800379 49,19.800379 h -4.897461 v 29.199705 c 0,0.552246 -0.447754,1 -1,1 z m -32.025391,-2 H 42.102539 V 18.800379 c 0,-0.552246 0.447754,-1 1,-1 h 2.732422 L 38.335449,12.535242 C 38.068848,12.34823 37.910156,12.042566 37.910156,11.716883 V 4.0000854 h -2 V 8.908289 c 0,0.373047 -0.207519,0.715332 -0.539062,0.887207 -0.331543,0.172852 -0.730469,0.145996 -1.035645,-0.06885 L 26.483398,4.2134642 6.2788086,17.800379 h 3.7983394 c 0.552246,0 1,0.447754 1,1 z"
         id="path4"
         inkscape:connector-curvature="0"
         style="stroke:none;stroke-opacity:1;fill:#375e97;fill-opacity:1" /></g></g></svg>