<?xml version="1.0" encoding="UTF-8" standalone="no"?>
<svg
   xmlns:dc="http://purl.org/dc/elements/1.1/"
   xmlns:cc="http://creativecommons.org/ns#"
   xmlns:rdf="http://www.w3.org/1999/02/22-rdf-syntax-ns#"
   xmlns:svg="http://www.w3.org/2000/svg"
   xmlns="http://www.w3.org/2000/svg"
   xmlns:sodipodi="http://sodipodi.sourceforge.net/DTD/sodipodi-0.dtd"
   xmlns:inkscape="http://www.inkscape.org/namespaces/inkscape"
   version="1.1"
   x="0px"
   y="0px"
   viewBox="0 0 90.002312 87.380997"
   xml:space="preserve"
   id="svg16"
   sodipodi:docname="for-rent.svg"
   inkscape:version="0.92.1 r15371"
   width="90.002312"
   height="87.380997"><metadata
     id="metadata22"><rdf:RDF><cc:Work
         rdf:about=""><dc:format>image/svg+xml</dc:format><dc:type
           rdf:resource="http://purl.org/dc/dcmitype/StillImage" /><dc:title></dc:title></cc:Work></rdf:RDF></metadata><defs
     id="defs20" /><sodipodi:namedview
     pagecolor="#ffffff"
     bordercolor="#666666"
     borderopacity="1"
     objecttolerance="10"
     gridtolerance="10"
     guidetolerance="10"
     inkscape:pageopacity="0"
     inkscape:pageshadow="2"
     inkscape:window-width="1440"
     inkscape:window-height="845"
     id="namedview18"
     showgrid="false"
     inkscape:zoom="2.6700352"
     inkscape:cx="20.078783"
     inkscape:cy="30.039982"
     inkscape:window-x="0"
     inkscape:window-y="0"
     inkscape:window-maximized="1"
     inkscape:current-layer="g10"
     fit-margin-top="0"
     fit-margin-left="0"
     fit-margin-right="0"
     fit-margin-bottom="0" /><g
     id="g10"
     transform="translate(-5,-6.313)"><path
       d="m 9.707,91.786 h 17.127 c 2.595,0 4.707,-2.111 4.707,-4.707 v -0.026 l 16.39,5.428 c 2.447,0.811 4.969,1.213 7.484,1.213 3.502,0 6.991,-0.781 10.241,-2.331 L 91.287,78.826 c 1.589,-0.777 2.78,-2.127 3.354,-3.8 0.574,-1.673 0.461,-3.47 -0.317,-5.059 -1.603,-3.272 -5.573,-4.635 -8.847,-3.037 L 70.834,74.073 C 70.112,71.082 67.42,68.851 64.211,68.851 H 53.966 l -3.619,-1.93 c -3.435,-1.832 -7.308,-2.8 -11.2,-2.8 h -7.606 v -0.115 c 0,-2.596 -2.111,-4.707 -4.707,-4.707 H 9.707 C 7.111,59.3 5,61.411 5,64.007 V 87.08 c 0,2.595 2.111,4.706 4.707,4.706 z m 29.44,-23.664 c 3.238,0 6.46,0.806 9.318,2.33 l 4.065,2.168 c 0.023,0.012 0.047,0.016 0.07,0.027 0.09,0.044 0.184,0.078 0.282,0.108 0.052,0.016 0.102,0.036 0.155,0.048 0.095,0.021 0.194,0.029 0.293,0.036 0.047,0.003 0.093,0.017 0.139,0.017 0.007,0 0.014,-0.003 0.022,-0.003 H 64.21 c 1.555,0 2.82,1.266 2.82,2.828 0,1.555 -1.265,2.82 -2.82,2.82 H 49.209 c -1.104,0 -2,0.896 -2,2 0,1.104 0.896,2 2,2 H 64.21 c 2.635,0 4.921,-1.504 6.056,-3.699 L 87.23,70.526 c 1.295,-0.632 2.867,-0.094 3.501,1.202 0.308,0.629 0.353,1.34 0.125,2.002 -0.228,0.662 -0.698,1.196 -1.327,1.504 L 63.917,87.762 c -4.628,2.207 -9.859,2.535 -14.728,0.922 L 31.541,82.84 V 68.122 Z M 9,64.007 C 9,63.617 9.317,63.3 9.707,63.3 h 17.127 c 0.39,0 0.707,0.317 0.707,0.707 V 87.08 c 0,0.39 -0.317,0.707 -0.707,0.707 H 9.707 C 9.317,87.786 9,87.469 9,87.08 Z"
       id="path2"
       inkscape:connector-curvature="0"
       style="fill:#375e97;fill-opacity:1;stroke:none;stroke-opacity:1" /><path
       d="m 36.26,46.678 c 0.396,0.458 0.953,0.693 1.515,0.693 0.463,0 0.928,-0.16 1.306,-0.486 l 1.229,-1.061 v 14.688 c 0,1.104 0.896,2 2,2 1.104,0 2,-0.896 2,-2 v -18.14 l 16.23,-14.006 16.238,14.01 v 23.405 c 0,1.104 0.896,2 2,2 1.104,0 2,-0.896 2,-2 V 45.827 l 1.226,1.057 c 0.836,0.721 2.1,0.628 2.821,-0.208 0.722,-0.836 0.629,-2.099 -0.208,-2.821 L 61.847,24.21 c -0.751,-0.648 -1.862,-0.647 -2.613,0 L 36.466,43.857 c -0.836,0.722 -0.928,1.984 -0.206,2.821 z"
       id="path4"
       inkscape:connector-curvature="0" /><path
       d="m 69.957,19.37 c 1.104,0 2,-0.896 2,-2 v -1.849 h 1.162 c 1.104,0 2,-0.896 2,-2 0,-1.104 -0.896,-2 -2,-2 H 60.092 c -0.87,-3.004 -3.64,-5.208 -6.92,-5.208 -3.975,0 -7.208,3.233 -7.208,7.208 0,3.975 3.233,7.208 7.208,7.208 3.28,0 6.05,-2.204 6.92,-5.208 h 7.865 v 1.849 c 0,1.104 0.896,2 2,2 z M 53.172,16.729 c -1.769,0 -3.208,-1.439 -3.208,-3.208 0,-1.769 1.439,-3.208 3.208,-3.208 1.769,0 3.208,1.439 3.208,3.208 0,1.769 -1.439,3.208 -3.208,3.208 z"
       id="path6"
       inkscape:connector-curvature="0" /><path
       d="m 49.104,54.073 c 0,1.104 0.896,2 2,2 h 2.715 c 1.354,4.857 4.669,8.214 8.647,8.214 2.854,0 5.497,-1.76 7.25,-4.828 0.548,-0.959 0.214,-2.181 -0.745,-2.729 -0.958,-0.547 -2.181,-0.214 -2.729,0.745 -1.021,1.788 -2.397,2.813 -3.776,2.813 -1.792,0 -3.442,-1.718 -4.411,-4.214 h 3.103 c 1.104,0 2,-0.896 2,-2 0,-1.104 -0.896,-2 -2,-2 H 57.19 c -0.02,-0.305 -0.03,-0.613 -0.03,-0.924 0,-0.311 0.011,-0.619 0.03,-0.924 h 3.968 c 1.104,0 2,-0.896 2,-2 0,-1.104 -0.896,-2 -2,-2 h -3.103 c 0.97,-2.496 2.62,-4.214 4.411,-4.214 1.38,0 2.755,1.028 3.774,2.82 0.546,0.959 1.768,1.296 2.728,0.75 0.96,-0.546 1.296,-1.767 0.75,-2.728 -1.75,-3.077 -4.394,-4.842 -7.252,-4.842 -3.978,0 -7.292,3.357 -8.647,8.214 h -2.715 c -1.104,0 -2,0.896 -2,2 0,1.104 0.896,2 2,2 h 2.087 c -0.014,0.306 -0.032,0.611 -0.032,0.924 0,0.313 0.018,0.617 0.032,0.924 h -2.087 c -1.104,-10e-4 -2,0.894 -2,1.999 z"
       id="path8"
       inkscape:connector-curvature="0" /></g></svg>