<?xml version="1.0" encoding="UTF-8" standalone="no"?>
<svg
   xmlns:dc="http://purl.org/dc/elements/1.1/"
   xmlns:cc="http://creativecommons.org/ns#"
   xmlns:rdf="http://www.w3.org/1999/02/22-rdf-syntax-ns#"
   xmlns:svg="http://www.w3.org/2000/svg"
   xmlns="http://www.w3.org/2000/svg"
   xmlns:sodipodi="http://sodipodi.sourceforge.net/DTD/sodipodi-0.dtd"
   xmlns:inkscape="http://www.inkscape.org/namespaces/inkscape"
   version="1.1"
   x="0px"
   y="0px"
   viewBox="0 0 62.789101 61.519726"
   enable-background="new 0 0 64 64"
   xml:space="preserve"
   id="svg20"
   sodipodi:docname="searching.svg"
   inkscape:version="0.92.1 r15371"
   width="62.789101"
   height="61.519726"><metadata
     id="metadata26"><rdf:RDF><cc:Work
         rdf:about=""><dc:format>image/svg+xml</dc:format><dc:type
           rdf:resource="http://purl.org/dc/dcmitype/StillImage" /><dc:title></dc:title></cc:Work></rdf:RDF></metadata><defs
     id="defs24" /><sodipodi:namedview
     pagecolor="#ffffff"
     bordercolor="#666666"
     borderopacity="1"
     objecttolerance="10"
     gridtolerance="10"
     guidetolerance="10"
     inkscape:pageopacity="0"
     inkscape:pageshadow="2"
     inkscape:window-width="952"
     inkscape:window-height="1027"
     id="namedview22"
     showgrid="false"
     inkscape:zoom="5.9"
     inkscape:cx="32.193049"
     inkscape:cy="21.153617"
     inkscape:window-x="2400"
     inkscape:window-y="0"
     inkscape:window-maximized="0"
     inkscape:current-layer="g14"
     fit-margin-top="0"
     fit-margin-left="0"
     fit-margin-right="0"
     fit-margin-bottom="0"
     inkscape:pagecheckerboard="false" /><g
     id="g14"
     transform="translate(-0.6059282,-1.24)"><g
       id="g10"><path
         d="M 58.186,21.767 C 57.508,21.245 56.83,20.737 56.165,20.215 55.096,19.393 54.026,18.572 52.97,17.763 L 43.359,10.382 41.468,8.934 C 38.56,6.704 35.652,4.461 32.743,2.231 32.234,1.84 31.726,1.579 31.23,1.422 31.204,1.409 31.178,1.409 31.165,1.396 31.009,1.357 30.865,1.318 30.709,1.279 30.631,1.266 30.539,1.253 30.448,1.253 30.329,1.24 30.225,1.24 30.134,1.24 c -0.104,0 -0.222,0 -0.326,0.013 -0.078,0 -0.183,0.013 -0.261,0.026 -0.156,0.039 -0.3,0.078 -0.456,0.117 -0.026,0.013 -0.039,0.013 -0.065,0.026 -0.509,0.156 -1.004,0.417 -1.5,0.809 -3.547,2.713 -7.094,5.438 -10.629,8.151 V 7.356 c 0,-0.717 -0.6,-1.317 -1.33,-1.317 h -4.995 c -0.73,0 -1.317,0.6 -1.317,1.33 0.013,2.973 0.026,5.49 -0.052,7.994 0,0.443 -0.248,0.965 -0.561,1.356 -1.513,1.174 -3.026,2.334 -4.551,3.495 -0.665,0.522 -1.343,1.03 -2.008,1.552 -0.913,0.691 -1.526,1.5 -1.474,2.53 0,0.535 0.13,1.056 0.456,1.526 0.756,1.108 2.347,1.695 3.821,1.265 0.326,-0.104 0.652,-0.248 0.965,-0.43 v 19.745 c 0,0.091 0.013,0.196 0.026,0.274 H 3.751 v 3.691 H 31.907 C 31.242,49.206 30.694,47.98 30.303,46.676 h -4.291 c 0.104,-0.065 0.143,-0.196 0.143,-0.417 V 32.735 c 0,-0.404 -0.039,-0.835 -0.104,-1.252 -0.509,-3.169 -3.782,-5.321 -6.912,-4.538 -2.673,0.665 -4.486,3.052 -4.486,5.934 v 13.367 c 0,0.235 0,0.378 0.078,0.43 h -4.643 c 0.013,-0.078 0.026,-0.183 0.026,-0.274 v -22.64 c 0,-0.104 0.026,-0.222 0.052,-0.326 C 16.374,18.689 22.581,13.955 28.75,9.182 L 29.404,8.7 C 29.665,8.544 29.9,8.478 30.134,8.465 30.356,8.478 30.59,8.543 30.851,8.7 l 0.639,0.483 c 6.077,4.695 12.168,9.338 18.284,14.006 3.221,0.352 6.182,1.552 8.673,3.365 0.287,-0.196 0.548,-0.443 0.743,-0.73 0.326,-0.47 0.456,-0.991 0.443,-1.526 0.066,-1.031 -0.547,-1.84 -1.447,-2.531 z"
         id="path2"
         inkscape:connector-curvature="0"
         style="fill:#000000" /><path
         d="m 31.323,16.688 c 0,2.728 0,5.404 0,8.105 1.545,0 3.047,0 4.545,0 0,-2.735 0,-5.411 0,-8.105 -1.525,0 -3.001,0 -4.545,0 z"
         id="path4"
         inkscape:connector-curvature="0"
         style="fill:#000000" /><path
         d="m 24.404,16.688 c 0,2.728 0,5.404 0,8.105 1.545,0 3.047,0 4.545,0 0,-2.735 0,-5.411 0,-8.105 -1.526,0 -3.001,0 -4.545,0 z"
         id="path6"
         inkscape:connector-curvature="0"
         style="fill:#000000" /><polyline
         points="52.965,17.762 43.361,10.38 41.473,8.931   "
         id="polyline8"
         style="fill:#000000" /></g><path
       d="m 58.54,52.57 c 1.153,1.729 2.539,4.155 3.577,5.724 0.934,1.411 0.643,3.11 -0.676,3.987 -1.331,0.885 -3.012,0.516 -3.945,-0.884 -2.076,-3.116 -1.164,-2.108 -3.23,-5.23 -0.116,-0.175 -0.184,-0.382 -0.262,-0.548 -8.785,3.672 -17.652,-0.915 -20.782,-8.055 -3.165,-7.219 -0.624,-15.593 6.08,-19.812 6.559,-4.128 15.281,-2.759 20.355,3.188 5.061,5.934 5.261,15.325 -1.117,21.63 z m 1.153,-8.944 c 1.368,-6.553 -2.889,-13.141 -9.37,-14.502 -6.847,-1.437 -13.419,2.793 -14.776,9.616 -1.345,6.765 3.047,12.924 9.222,14.392 6.908,1.642 13.628,-2.902 14.924,-9.506 z"
       id="path12"
       style="fill:#375e97;fill-opacity:1"
       inkscape:connector-curvature="0" /></g></svg>