<?xml version="1.0" encoding="UTF-8" standalone="no"?>
<svg
   xmlns:dc="http://purl.org/dc/elements/1.1/"
   xmlns:cc="http://creativecommons.org/ns#"
   xmlns:rdf="http://www.w3.org/1999/02/22-rdf-syntax-ns#"
   xmlns:svg="http://www.w3.org/2000/svg"
   xmlns="http://www.w3.org/2000/svg"
   xmlns:sodipodi="http://sodipodi.sourceforge.net/DTD/sodipodi-0.dtd"
   xmlns:inkscape="http://www.inkscape.org/namespaces/inkscape"
   version="1.1"
   x="0px"
   y="0px"
   viewBox="0 0 64 80"
   enable-background="new 0 0 64 64"
   xml:space="preserve"
   id="svg20"
   sodipodi:docname="searching--hover.svg"
   inkscape:version="0.92.1 r15371"><metadata
     id="metadata26"><rdf:RDF><cc:Work
         rdf:about=""><dc:format>image/svg+xml</dc:format><dc:type
           rdf:resource="http://purl.org/dc/dcmitype/StillImage" /><dc:title></dc:title></cc:Work></rdf:RDF></metadata><defs
     id="defs24" /><sodipodi:namedview
     pagecolor="#ffffff"
     bordercolor="#666666"
     borderopacity="1"
     objecttolerance="10"
     gridtolerance="10"
     guidetolerance="10"
     inkscape:pageopacity="0"
     inkscape:pageshadow="2"
     inkscape:window-width="952"
     inkscape:window-height="1027"
     id="namedview22"
     showgrid="false"
     inkscape:zoom="5.9"
     inkscape:cx="32.798977"
     inkscape:cy="38.39389"
     inkscape:window-x="2400"
     inkscape:window-y="0"
     inkscape:window-maximized="0"
     inkscape:current-layer="g14" /><g
     id="g14"><g
       id="g10"
       style="fill:#375e97;fill-opacity:1"><path
         fill="#000000"
         d="M58.186,21.767c-0.678-0.522-1.356-1.03-2.021-1.552c-1.069-0.822-2.139-1.643-3.195-2.452l-9.611-7.381    l-1.891-1.448c-2.908-2.23-5.816-4.473-8.725-6.703c-0.509-0.391-1.017-0.652-1.513-0.809c-0.026-0.013-0.052-0.013-0.065-0.026    c-0.156-0.039-0.3-0.078-0.456-0.117c-0.078-0.013-0.17-0.026-0.261-0.026C30.329,1.24,30.225,1.24,30.134,1.24    c-0.104,0-0.222,0-0.326,0.013c-0.078,0-0.183,0.013-0.261,0.026c-0.156,0.039-0.3,0.078-0.456,0.117    c-0.026,0.013-0.039,0.013-0.065,0.026c-0.509,0.156-1.004,0.417-1.5,0.809c-3.547,2.713-7.094,5.438-10.629,8.151V7.356    c0-0.717-0.6-1.317-1.33-1.317h-4.995c-0.73,0-1.317,0.6-1.317,1.33c0.013,2.973,0.026,5.49-0.052,7.994    c0,0.443-0.248,0.965-0.561,1.356c-1.513,1.174-3.026,2.334-4.551,3.495c-0.665,0.522-1.343,1.03-2.008,1.552    c-0.913,0.691-1.526,1.5-1.474,2.53c0,0.535,0.13,1.056,0.456,1.526c0.756,1.108,2.347,1.695,3.821,1.265    c0.326-0.104,0.652-0.248,0.965-0.43v19.745c0,0.091,0.013,0.196,0.026,0.274H3.751v3.691h28.156    c-0.665-1.161-1.213-2.387-1.604-3.691h-4.291c0.104-0.065,0.143-0.196,0.143-0.417V32.735c0-0.404-0.039-0.835-0.104-1.252    c-0.509-3.169-3.782-5.321-6.912-4.538c-2.673,0.665-4.486,3.052-4.486,5.934v13.367c0,0.235,0,0.378,0.078,0.43h-4.643    c0.013-0.078,0.026-0.183,0.026-0.274v-22.64c0-0.104,0.026-0.222,0.052-0.326c6.208-4.747,12.415-9.481,18.584-14.254L29.404,8.7    c0.261-0.156,0.496-0.222,0.73-0.235c0.222,0.013,0.456,0.078,0.717,0.235l0.639,0.483c6.077,4.695,12.168,9.338,18.284,14.006    c3.221,0.352,6.182,1.552,8.673,3.365c0.287-0.196,0.548-0.443,0.743-0.73c0.326-0.47,0.456-0.991,0.443-1.526    C59.699,23.267,59.086,22.458,58.186,21.767z"
         id="path2"
         style="fill:#375e97;fill-opacity:1" /><path
         fill="#000000"
         d="M31.323,16.688c0,2.728,0,5.404,0,8.105c1.545,0,3.047,0,4.545,0c0-2.735,0-5.411,0-8.105    C34.343,16.688,32.867,16.688,31.323,16.688z"
         id="path4"
         style="fill:#375e97;fill-opacity:1" /><path
         fill="#000000"
         d="M24.404,16.688c0,2.728,0,5.404,0,8.105c1.545,0,3.047,0,4.545,0c0-2.735,0-5.411,0-8.105    C27.423,16.688,25.948,16.688,24.404,16.688z"
         id="path6"
         style="fill:#375e97;fill-opacity:1" /><polyline
         fill="#000000"
         points="52.965,17.762 43.361,10.38 41.473,8.931   "
         id="polyline8"
         style="fill:#375e97;fill-opacity:1" /></g><path
       fill="#000000"
       d="M58.54,52.57c1.153,1.729,2.539,4.155,3.577,5.724c0.934,1.411,0.643,3.11-0.676,3.987   c-1.331,0.885-3.012,0.516-3.945-0.884c-2.076-3.116-1.164-2.108-3.23-5.23c-0.116-0.175-0.184-0.382-0.262-0.548   c-8.785,3.672-17.652-0.915-20.782-8.055c-3.165-7.219-0.624-15.593,6.08-19.812c6.559-4.128,15.281-2.759,20.355,3.188   C64.718,36.874,64.918,46.265,58.54,52.57z M59.693,43.626c1.368-6.553-2.889-13.141-9.37-14.502   c-6.847-1.437-13.419,2.793-14.776,9.616c-1.345,6.765,3.047,12.924,9.222,14.392C51.677,54.774,58.397,50.23,59.693,43.626z"
       id="path12"
       style="fill:#375e97;fill-opacity:1" /></g></svg>